<svg width="14" height="9" viewBox="0 0 14 9" fill="none" xmlns="http://www.w3.org/2000/svg">
<path fill-rule="evenodd" clip-rule="evenodd" d="M-1.96729e-07 4.49937C-2.02525e-07 4.36676 0.0526782 4.23958 0.146446 4.14581C0.240215 4.05205 0.367392 3.99937 0.5 3.99937L12.293 3.99937L9.146 0.853368C9.05211 0.759482 8.99937 0.632144 8.99937 0.499368C8.99937 0.366593 9.05211 0.239255 9.146 0.145368C9.23989 0.0514818 9.36722 -0.00126307 9.5 -0.00126308C9.63277 -0.00126309 9.76011 0.0514818 9.854 0.145368L13.854 4.14537C13.9006 4.19181 13.9375 4.24699 13.9627 4.30773C13.9879 4.36848 14.0009 4.4336 14.0009 4.49937C14.0009 4.56514 13.9879 4.63026 13.9627 4.691C13.9375 4.75175 13.9006 4.80692 13.854 4.85337L9.854 8.85337C9.76011 8.94725 9.63278 9 9.5 9C9.36722 9 9.23989 8.94725 9.146 8.85337C9.05211 8.75948 8.99937 8.63214 8.99937 8.49937C8.99937 8.36659 9.05211 8.23925 9.146 8.14537L12.293 4.99937L0.5 4.99937C0.367392 4.99937 0.240215 4.94669 0.146446 4.85292C0.0526782 4.75915 -1.90932e-07 4.63198 -1.96729e-07 4.49937Z" fill="#FF7B28"/>
</svg>
