<svg width="48" height="41" viewBox="0 0 48 41" fill="none" xmlns="http://www.w3.org/2000/svg">
<g clip-path="url(#clip0_3524_94165)">
<path d="M9.66177 17.8019C9.89341 13.7595 11.7156 10.7748 14.3614 8.75359C17.0072 6.73763 20.5023 5.71132 24.0026 5.71132C27.5028 5.71132 30.9928 6.73763 33.6438 8.75359C36.2895 10.7748 38.1117 13.7595 38.3434 17.8019L39.3729 17.7443C39.1361 13.3982 37.1234 10.0888 34.2614 7.91579C31.3995 5.7375 27.6984 4.6693 24.0077 4.66406C20.317 4.66406 16.616 5.7375 13.754 7.91579C10.892 10.0888 8.87936 13.3982 8.64258 17.7443L9.67207 17.8019H9.66177Z" fill="#A5A5A5"/>
<path d="M43.866 20.4895V18.5521C43.8712 12.3995 41.3695 7.71826 37.6273 4.62363C33.88 1.52899 28.9333 0 23.9917 0C19.0501 0 14.1086 1.52899 10.3664 4.62363C6.62933 7.71303 4.12767 12.3943 4.13282 18.5521V20.4895H5.16231V18.5521C5.16746 12.6875 7.5044 8.35185 11.015 5.43525C14.5307 2.51865 19.256 1.04725 23.9917 1.04725C28.7274 1.04725 33.4579 2.52388 36.9736 5.44049C40.4893 8.36232 42.8314 12.6927 42.8365 18.5573V20.4948H43.866V20.4895Z" fill="#A5A5A5"/>
<path d="M38.2873 40.4224L38.1998 40.9356C38.4623 40.9827 38.7197 41.0037 38.977 41.0037C41.1029 41.0037 42.9869 39.4642 43.3678 37.2702L44.7216 29.5153C44.7679 29.2482 44.7885 28.9864 44.7885 28.7246C44.7885 26.5673 43.2649 24.6665 41.0978 24.279L41.0515 24.2685H41.0051V24.7922L41.0926 24.279C40.8301 24.2319 40.5728 24.2109 40.3154 24.2109C38.1895 24.2109 36.3107 25.7504 35.9246 27.9444L34.5708 35.6993C34.5245 35.9664 34.5039 36.2282 34.5039 36.49C34.5039 38.6473 36.0276 40.5481 38.1946 40.9356L38.2821 40.4224L38.3696 39.9093C36.7019 39.6108 35.5334 38.1447 35.5334 36.4952C35.5334 36.2963 35.5488 36.092 35.5849 35.8878L36.9387 28.1329C37.2321 26.4521 38.6836 25.2634 40.3154 25.2634C40.511 25.2634 40.7169 25.2791 40.9176 25.3158L40.964 25.3263H41.0103V24.8026L40.9228 25.3158C42.5906 25.6143 43.759 27.0804 43.759 28.7298C43.759 28.9288 43.7436 29.133 43.7076 29.3372L42.3538 37.0922C42.0604 38.773 40.6088 39.9616 38.977 39.9616C38.7814 39.9616 38.5755 39.9459 38.3748 39.9093L38.2873 40.4224Z" fill="#FD5C23"/>
<path d="M46.9765 31.1436L46.0397 36.5213C45.9882 36.804 46.1786 37.0763 46.4566 37.1287C46.7346 37.1811 47.0022 36.9873 47.0537 36.7045L47.9905 31.3269C48.042 31.0441 47.8516 30.7719 47.5736 30.7195C47.2956 30.6671 47.028 30.8609 46.9765 31.1436Z" fill="#FD5C23"/>
<path d="M9.71217 40.4224L9.62466 39.9093C9.42391 39.9459 9.22316 39.9616 9.02241 39.9616C7.38552 39.9616 5.93909 38.773 5.64568 37.0922L4.2919 29.3372C4.25587 29.133 4.24043 28.9288 4.24043 28.7298C4.24043 27.0804 5.4089 25.6143 7.07667 25.3158C7.27743 25.2791 7.47818 25.2634 7.67893 25.2634C9.31582 25.2634 10.7623 26.4521 11.0557 28.1329L12.4094 35.8878C12.4455 36.092 12.4609 36.2963 12.4609 36.4952C12.4609 38.1447 11.2924 39.6108 9.62466 39.9093L9.71217 40.4224L9.79968 40.9356C11.9616 40.5481 13.4904 38.6473 13.4904 36.49C13.4904 36.2282 13.4698 35.9664 13.4235 35.6993L12.0697 27.9444C11.6836 25.7504 9.80482 24.2109 7.67893 24.2109C7.42155 24.2109 7.15903 24.2319 6.90166 24.279C4.73973 24.6665 3.21094 26.5673 3.21094 28.7246C3.21094 28.9864 3.23153 29.2482 3.27785 29.5153L4.63163 37.2702C5.01769 39.4642 6.89651 41.0037 9.02241 41.0037C9.27979 41.0037 9.5423 40.9827 9.79968 40.9356L9.71217 40.4224Z" fill="#FD5C23"/>
<path d="M0.0103632 31.3269L0.9472 36.7045C0.998674 36.9873 1.26634 37.1811 1.5443 37.1287C1.82227 37.0763 2.01272 36.804 1.96125 36.5213L1.02441 31.1436C0.972937 30.8609 0.705269 30.6671 0.427307 30.7195C0.149344 30.7719 -0.0411113 31.0441 0.0103632 31.3269Z" fill="#FD5C23"/>
</g>
<defs>
<clipPath id="clip0_3524_94165">
<rect width="48" height="41" fill="white"/>
</clipPath>
</defs>
</svg>
