<svg width="20" height="19" viewBox="0 0 20 19" fill="none" xmlns="http://www.w3.org/2000/svg">
<g clip-path="url(#clip0_3524_93784)">
<path d="M14.8097 9.49757C14.8074 8.7879 14.727 8.08038 14.5698 7.38646H16.5785C16.4751 7.09701 16.3501 6.81482 16.2047 6.54201H14.3355C13.9841 5.4316 13.4391 4.38451 12.7229 3.44396C12.2654 3.26198 11.7883 3.12749 11.3001 3.04285C12.2812 4.03995 13.0218 5.22663 13.4706 6.5209H10.4632V2.95312H9.62621V6.52618H6.61876C7.06853 5.22956 7.81105 4.04098 8.79484 3.04285C8.30872 3.12608 7.83355 3.2588 7.3776 3.43868C6.65863 4.37529 6.10987 5.41877 5.75391 6.52618H3.87356C3.72546 6.80397 3.59866 7.09147 3.49414 7.38646H5.51957C5.36238 8.08038 5.28197 8.7879 5.27964 9.49757C5.28118 10.2738 5.37476 11.0474 5.55862 11.804H3.58342C3.69885 12.0998 3.83684 12.3873 3.99631 12.6642H5.79855C6.14014 13.6753 6.64656 14.6298 7.29949 15.4931C7.76705 15.6828 8.25549 15.8227 8.75578 15.9101C7.84513 14.9705 7.14479 13.8664 6.69688 12.6642H9.63179V16.0103H10.4687V12.6642H13.3925C12.9431 13.8669 12.2408 14.9711 11.328 15.9101C11.8307 15.8196 12.321 15.6763 12.7899 15.4826C13.4418 14.6225 13.9482 13.6717 14.2908 12.6642H16.0763C16.2351 12.3924 16.3731 12.1102 16.4892 11.8198H14.5084C14.7011 11.0589 14.8021 10.2799 14.8097 9.49757ZM9.62621 11.804H6.42348C6.03065 10.3514 6.01342 8.83078 6.37326 7.37063H9.62621V11.804ZM13.6659 11.804H10.4632V7.38646H13.7161C13.8764 8.07982 13.955 8.78784 13.9505 9.49757C13.955 10.2744 13.8594 11.0489 13.6659 11.804Z" fill="#3C3C3B"/>
<path d="M10.0427 1.05469C8.27704 1.05469 6.551 1.54995 5.08288 2.47783C3.61476 3.40572 2.4705 4.72456 1.7948 6.26758C1.1191 7.8106 0.942308 9.5085 1.28678 11.1466C1.63125 12.7846 2.48151 14.2893 3.73004 15.4703C4.97857 16.6512 6.5693 17.4555 8.30107 17.7813C10.0328 18.1072 11.8279 17.9399 13.4591 17.3008C15.0904 16.6616 16.4847 15.5793 17.4657 14.1906C18.4466 12.8019 18.9702 11.1693 18.9702 9.49913C18.9702 7.25953 18.0297 5.11165 16.3554 3.52801C14.6812 1.94437 12.4105 1.05469 10.0427 1.05469ZM10.0427 16.888C8.49775 16.888 6.98747 16.4547 5.70286 15.6428C4.41826 14.8309 3.41703 13.6769 2.82579 12.3267C2.23456 10.9766 2.07986 9.49094 2.38127 8.05763C2.68268 6.62433 3.42666 5.30775 4.51913 4.2744C5.61159 3.24104 7.00348 2.53732 8.51878 2.25222C10.0341 1.96712 11.6047 2.11344 13.0321 2.67269C14.4595 3.23194 15.6795 4.17899 16.5378 5.39408C17.3962 6.60918 17.8543 8.03775 17.8543 9.49913C17.8543 11.4588 17.0313 13.3382 15.5663 14.7239C14.1014 16.1096 12.1145 16.888 10.0427 16.888Z" fill="#3C3C3B"/>
</g>
<defs>
<clipPath id="clip0_3524_93784">
<rect width="19.8051" height="19" fill="white"/>
</clipPath>
</defs>
</svg>
