<svg width="53" height="37" viewBox="0 0 53 37" fill="none" xmlns="http://www.w3.org/2000/svg">
<g clip-path="url(#clip0_3524_94152)">
<path d="M46.899 0H6.10103C2.73231 0 0 2.77586 0 6.19828V30.8017C0 34.2241 2.73231 37 6.10103 37H46.899C50.2677 37 53 34.2241 53 30.8017V6.19828C53 2.77586 50.2677 0 46.899 0ZM2.5 3C3.29763 2.18966 4.7781 1.5 6 1.5H47C48.2219 1.5 49.3165 2 50.1142 2.81034C50.9118 3.62069 51.6908 4.9569 51.6908 6.19828V9.37931H1.32559V6.19828C1.32559 4.9569 1.70237 3.81034 2.5 3ZM50.5 34C49.7024 34.8103 48.0199 35.5 46.798 35.5H6C4.7781 35.5 3.29763 34.8103 2.5 34C1.70237 33.1897 1.32559 32.0431 1.32559 30.8017V10.5H51.6908V30.8017C51.6908 32.0431 51.2976 33.1897 50.5 34Z" fill="#A5A5A5"/>
<path d="M47.4176 19.2678V19.0523L47.3666 18.3368L46.6624 18.2506C46.1023 18.1816 45.5847 18.1299 45.118 18.0523C43.7009 17.8023 42.4705 17.2161 41.3759 16.2765C41.342 16.2506 41.2996 16.2075 41.1892 16.1385C41.0874 16.0782 40.9092 15.992 40.6886 16.0006C40.5359 16.0006 40.3831 16.0437 40.2813 16.0954C40.171 16.1472 40.0946 16.2075 40.0267 16.2592C38.7879 17.3282 37.3878 17.923 35.7671 18.1299C35.4531 18.173 35.1137 18.1989 34.7149 18.2334L33.9512 18.3109V19.0954C33.9512 19.5696 33.9512 20.0351 33.9512 20.492C33.9512 20.8023 33.9512 21.104 33.9512 21.4144V21.4489C33.9512 22.7937 34.0275 24.1644 34.3415 25.5351C34.7318 27.242 35.5379 28.7851 36.8532 30.0006C37.8884 30.9575 39.0849 31.5954 40.3322 32.0609L40.5019 32.1213L40.8498 32.0954H41.0026L41.1468 32.0178C41.7238 31.742 42.3772 31.4834 43.0306 31.1041C44.4477 30.2851 45.5762 29.104 46.3144 27.5954C47.0272 26.1385 47.3072 24.5954 47.3751 23.0696C47.4006 22.4747 47.4091 21.8799 47.4091 21.2937C47.4091 20.7075 47.4091 20.0954 47.4091 19.5092C47.4091 19.423 47.4091 19.3454 47.4091 19.2592L47.4176 19.2678ZM44.8125 26.8282C44.2185 28.0351 43.353 28.9403 42.199 29.6127C41.7578 29.8713 41.2317 30.0954 40.6886 30.3454C39.6788 29.9489 38.7709 29.4316 37.9987 28.7247C36.955 27.7592 36.3271 26.5782 35.9962 25.1472C35.7246 23.9575 35.6483 22.7247 35.6483 21.4489V21.4144C35.6483 21.104 35.6483 20.8023 35.6483 20.492C35.6483 20.2851 35.6483 20.0782 35.6483 19.8713C35.7586 19.8627 35.8689 19.854 35.9792 19.8368C37.7187 19.6213 39.3225 18.992 40.7056 17.9058C41.9275 18.8454 43.3106 19.4747 44.8295 19.742C45.135 19.7937 45.432 19.8368 45.7205 19.8713C45.7205 20.354 45.7205 20.8282 45.7205 21.3023C45.7205 21.8713 45.7205 22.4403 45.6865 23.0006C45.6271 24.3713 45.381 25.6558 44.804 26.8282H44.8125Z" fill="#FD5C22"/>
<path d="M42.776 21.8426L42.6063 22.0064C41.7069 22.9201 40.7989 23.8426 39.8655 24.7908L39.7467 24.627C39.3903 24.265 39.0424 23.8943 38.6776 23.5408C38.3381 23.2133 37.812 23.3512 37.6932 23.7908C37.6254 24.0408 37.7102 24.2477 37.8884 24.4288C38.3891 24.9288 38.8812 25.4374 39.3818 25.9374C39.7467 26.3081 40.0437 26.3081 40.4086 25.9374C41.4353 24.8943 42.4536 23.8598 43.4803 22.8167L43.6161 22.6701C43.8028 22.4288 43.7858 22.0753 43.5652 21.8684C43.353 21.6615 43.0136 21.6443 42.7845 21.8426H42.776Z" fill="#FD5C22"/>
</g>
<defs>
<clipPath id="clip0_3524_94152">
<rect width="53" height="37" fill="white"/>
</clipPath>
</defs>
</svg>
