<svg width="50" height="32" viewBox="0 0 50 32" fill="none" xmlns="http://www.w3.org/2000/svg">
<g clip-path="url(#clip0_3524_94139)">
<path d="M50.001 17.3485C50.001 17.2243 49.9423 17.1161 49.8523 17.0399C49.7467 16.6873 49.5903 16.3507 49.3829 16.0421L43.5745 7.39386C42.9212 6.42405 41.7752 5.85498 40.5548 5.85498H34.3865V4.3201C34.3865 3.14189 33.9875 2.07188 33.3343 1.28641C32.6772 0.504947 31.7502 0 30.7175 0H5.16016V6.92098C5.16016 7.14139 5.33617 7.32173 5.5513 7.32173C5.76643 7.32173 5.94245 7.14139 5.94245 6.92098V0.801503H30.7175C31.4959 0.801503 32.2039 1.17821 32.7358 1.8114C33.2639 2.44458 33.6003 3.33425 33.6003 4.32411V27.4675H17.9584C17.9701 27.3272 17.978 27.183 17.978 27.0387C17.978 25.6761 17.4734 24.4378 16.6481 23.5401C15.8267 22.6425 14.6767 22.0774 13.4055 22.0774C12.1382 22.0774 10.9882 22.6384 10.1629 23.5401C9.33758 24.4378 8.833 25.6761 8.833 27.0387C8.833 27.183 8.84083 27.3272 8.85256 27.4675H8.26193C7.64001 27.4675 7.07285 27.1669 6.64259 26.658C6.21625 26.145 5.94245 25.4277 5.94245 24.6222V23.3478C5.94245 23.1274 5.76643 22.947 5.5513 22.947C5.33617 22.947 5.16016 23.1274 5.16016 23.3478V24.6222C5.16016 25.612 5.49263 26.5137 6.04805 27.179C6.59957 27.8442 7.38577 28.269 8.26193 28.269H8.98164C9.18503 29.1386 9.59573 29.9201 10.1629 30.5373C10.9843 31.4349 12.1343 32 13.4055 32C14.6728 32 15.8228 31.4389 16.6481 30.5373C17.2152 29.9201 17.6259 29.1386 17.8293 28.269H38.6265C38.8299 29.1386 39.2406 29.9201 39.8077 30.5373C40.6291 31.4349 41.7791 32 43.0503 32C44.3176 32 45.4676 31.4389 46.2929 30.5373C46.8718 29.9081 47.2864 29.1066 47.4898 28.2169C48.0961 28.1127 48.6437 27.8442 49.0739 27.4595C49.6372 26.9585 50.001 26.2412 50.001 25.4437V18.0418C50.001 17.8655 49.9892 17.6892 49.9618 17.5168C49.9853 17.4647 50.001 17.4086 50.001 17.3485ZM17.0275 28.265C16.8436 28.9262 16.5112 29.5113 16.077 29.9842C15.3886 30.7376 14.4459 31.1945 13.4055 31.1945C12.365 31.1945 11.4224 30.7376 10.734 29.9842C10.2998 29.5113 9.97123 28.9222 9.78348 28.265C9.70917 28.0085 9.65832 27.74 9.63485 27.4635C9.62311 27.3232 9.61529 27.179 9.61529 27.0347C9.61529 25.8765 10.0456 24.8346 10.734 24.0852C11.4224 23.3317 12.365 22.8749 13.4055 22.8749C14.4459 22.8749 15.3886 23.3317 16.077 24.0852C16.7654 24.8386 17.1957 25.8805 17.1957 27.0347C17.1957 27.179 17.1878 27.3232 17.1761 27.4635C17.1487 27.74 17.0979 28.0085 17.0275 28.265ZM43.0503 31.1945C42.0099 31.1945 41.0672 30.7376 40.3788 29.9842C39.9446 29.5113 39.6161 28.9222 39.4283 28.265C39.354 28.0085 39.3032 27.74 39.2797 27.4635C39.268 27.3232 39.2601 27.179 39.2601 27.0347C39.2601 25.8765 39.6904 24.8346 40.3788 24.0852C41.0672 23.3317 42.0099 22.8749 43.0503 22.8749C44.0908 22.8749 45.0295 23.3317 45.7218 24.0852C46.4102 24.8386 46.8405 25.8805 46.8405 27.0347C46.8405 27.179 46.8327 27.3232 46.8209 27.4635C46.7936 27.74 46.7427 28.0085 46.6723 28.265C46.4885 28.9262 46.156 29.5113 45.7218 29.9842C45.0334 30.7376 44.0908 31.1945 43.0503 31.1945ZM49.2148 25.4437C49.2148 25.9847 48.9722 26.4817 48.5537 26.8544C48.2956 27.0828 47.967 27.2551 47.6032 27.3593C47.6111 27.2511 47.6189 27.1469 47.6189 27.0387C47.6189 25.6761 47.1143 24.4378 46.289 23.5401C45.4676 22.6425 44.3176 22.0774 43.0464 22.0774C41.7791 22.0774 40.6291 22.6384 39.8038 23.5401C38.9785 24.4378 38.4739 25.6761 38.4739 27.0387C38.4739 27.183 38.4818 27.3272 38.4935 27.4675H34.3786V6.66049H40.547C41.5366 6.66049 42.4401 7.12937 42.9252 7.85072L48.7336 16.4989C48.8314 16.6432 48.9097 16.7955 48.9762 16.9478H40.7621V10.8283C40.7621 10.6079 40.5861 10.4276 40.371 10.4276C40.1558 10.4276 39.9798 10.6079 39.9798 10.8283V17.7493H49.1913C49.203 17.8455 49.2148 17.9416 49.2148 18.0418V25.4437Z" fill="#A5A5A5"/>
<path d="M23.0893 9.12731C23.0893 8.9069 22.9132 8.72656 22.6981 8.72656H0.391144C0.176015 8.72656 0 8.9069 0 9.12731C0 9.34773 0.176015 9.52807 0.391144 9.52807H22.6981C22.9132 9.52807 23.0893 9.34773 23.0893 9.12731Z" fill="#FD5C23"/>
<path d="M23.0905 14.2133C23.0905 13.9928 22.9145 13.8125 22.6994 13.8125H2.37552C2.16039 13.8125 1.98438 13.9928 1.98438 14.2133C1.98438 14.4337 2.16039 14.614 2.37552 14.614H22.6994C22.9145 14.614 23.0905 14.4337 23.0905 14.2133Z" fill="#FD5C23"/>
<path d="M23.0879 19.1586C23.0879 18.9382 22.9119 18.7578 22.6968 18.7578H4.35599C4.14086 18.7578 3.96484 18.9382 3.96484 19.1586C3.96484 19.379 4.14086 19.5593 4.35599 19.5593H22.6968C22.9119 19.5593 23.0879 19.379 23.0879 19.1586Z" fill="#FD5C23"/>
</g>
<defs>
<clipPath id="clip0_3524_94139">
<rect width="50" height="32" fill="white"/>
</clipPath>
</defs>
</svg>
